<mxfile host="app.diagrams.net" modified="2023-01-16T03:45:52.963Z" agent="5.0 (Windows NT 10.0; Win64; x64) AppleWebKit/537.36 (KHTML, like Gecko) Chrome/102.0.0.0 Safari/537.36" etag="hXkE39JvP2cCfZZ79WQn" version="20.8.1" type="github">
  <diagram name="Page-1" id="74e2e168-ea6b-b213-b513-2b3c1d86103e">
    <mxGraphModel dx="1434" dy="788" grid="1" gridSize="10" guides="1" tooltips="1" connect="1" arrows="1" fold="1" page="1" pageScale="1" pageWidth="1100" pageHeight="850" background="none" math="0" shadow="0">
      <root>
        <mxCell id="0" />
        <mxCell id="1" parent="0" />
        <mxCell id="tuBLaBSkJ89Im9jUzG5C-1" value="" style="shape=umlLifeline;participant=umlActor;perimeter=lifelinePerimeter;whiteSpace=wrap;html=1;container=1;collapsible=0;recursiveResize=0;verticalAlign=top;spacingTop=36;outlineConnect=0;" vertex="1" parent="1">
          <mxGeometry x="140" y="210" width="20" height="850" as="geometry" />
        </mxCell>
        <mxCell id="tuBLaBSkJ89Im9jUzG5C-2" value="" style="shape=umlLifeline;participant=umlEntity;perimeter=lifelinePerimeter;whiteSpace=wrap;html=1;container=1;collapsible=0;recursiveResize=0;verticalAlign=top;spacingTop=36;outlineConnect=0;" vertex="1" parent="1">
          <mxGeometry x="300" y="210" width="40" height="830" as="geometry" />
        </mxCell>
        <mxCell id="tuBLaBSkJ89Im9jUzG5C-8" value="" style="html=1;points=[];perimeter=orthogonalPerimeter;" vertex="1" parent="tuBLaBSkJ89Im9jUzG5C-2">
          <mxGeometry x="15" y="110" width="10" height="660" as="geometry" />
        </mxCell>
        <mxCell id="tuBLaBSkJ89Im9jUzG5C-5" value="" style="shape=umlLifeline;participant=umlEntity;perimeter=lifelinePerimeter;whiteSpace=wrap;html=1;container=1;collapsible=0;recursiveResize=0;verticalAlign=top;spacingTop=36;outlineConnect=0;" vertex="1" parent="1">
          <mxGeometry x="490" y="210" width="40" height="780" as="geometry" />
        </mxCell>
        <mxCell id="tuBLaBSkJ89Im9jUzG5C-42" value="" style="html=1;points=[];perimeter=orthogonalPerimeter;" vertex="1" parent="tuBLaBSkJ89Im9jUzG5C-5">
          <mxGeometry x="15" y="120" width="10" height="200" as="geometry" />
        </mxCell>
        <mxCell id="tuBLaBSkJ89Im9jUzG5C-57" value="" style="html=1;points=[];perimeter=orthogonalPerimeter;" vertex="1" parent="tuBLaBSkJ89Im9jUzG5C-5">
          <mxGeometry x="15" y="210" width="10" height="30" as="geometry" />
        </mxCell>
        <mxCell id="tuBLaBSkJ89Im9jUzG5C-68" value="" style="html=1;points=[];perimeter=orthogonalPerimeter;" vertex="1" parent="tuBLaBSkJ89Im9jUzG5C-5">
          <mxGeometry x="15" y="360" width="10" height="80" as="geometry" />
        </mxCell>
        <mxCell id="tuBLaBSkJ89Im9jUzG5C-74" value="" style="html=1;points=[];perimeter=orthogonalPerimeter;" vertex="1" parent="tuBLaBSkJ89Im9jUzG5C-5">
          <mxGeometry x="15" y="470" width="10" height="70" as="geometry" />
        </mxCell>
        <mxCell id="tuBLaBSkJ89Im9jUzG5C-80" value="" style="html=1;points=[];perimeter=orthogonalPerimeter;" vertex="1" parent="tuBLaBSkJ89Im9jUzG5C-5">
          <mxGeometry x="15" y="570" width="10" height="80" as="geometry" />
        </mxCell>
        <mxCell id="tuBLaBSkJ89Im9jUzG5C-86" value="" style="html=1;points=[];perimeter=orthogonalPerimeter;" vertex="1" parent="tuBLaBSkJ89Im9jUzG5C-5">
          <mxGeometry x="15" y="680" width="10" height="80" as="geometry" />
        </mxCell>
        <mxCell id="tuBLaBSkJ89Im9jUzG5C-9" value="选择指定设备进行分析" style="html=1;verticalAlign=bottom;endArrow=block;entryX=0;entryY=0;rounded=0;" edge="1" target="tuBLaBSkJ89Im9jUzG5C-8" parent="1" source="tuBLaBSkJ89Im9jUzG5C-1">
          <mxGeometry relative="1" as="geometry">
            <mxPoint x="245" y="320" as="sourcePoint" />
          </mxGeometry>
        </mxCell>
        <mxCell id="tuBLaBSkJ89Im9jUzG5C-10" value="return" style="html=1;verticalAlign=bottom;endArrow=open;dashed=1;endSize=8;exitX=0;exitY=0.95;rounded=0;" edge="1" source="tuBLaBSkJ89Im9jUzG5C-8" parent="1" target="tuBLaBSkJ89Im9jUzG5C-1">
          <mxGeometry relative="1" as="geometry">
            <mxPoint x="245" y="396" as="targetPoint" />
          </mxGeometry>
        </mxCell>
        <mxCell id="tuBLaBSkJ89Im9jUzG5C-11" value="" style="shape=umlLifeline;participant=umlEntity;perimeter=lifelinePerimeter;whiteSpace=wrap;html=1;container=1;collapsible=0;recursiveResize=0;verticalAlign=top;spacingTop=36;outlineConnect=0;" vertex="1" parent="1">
          <mxGeometry x="690" y="210" width="40" height="830" as="geometry" />
        </mxCell>
        <mxCell id="tuBLaBSkJ89Im9jUzG5C-39" value="" style="html=1;points=[];perimeter=orthogonalPerimeter;fontFamily=Helvetica;fontSize=12;fontColor=default;align=center;strokeColor=default;fillColor=default;" vertex="1" parent="tuBLaBSkJ89Im9jUzG5C-11">
          <mxGeometry x="15" y="130" width="10" height="30" as="geometry" />
        </mxCell>
        <mxCell id="tuBLaBSkJ89Im9jUzG5C-51" value="" style="html=1;points=[];perimeter=orthogonalPerimeter;" vertex="1" parent="tuBLaBSkJ89Im9jUzG5C-11">
          <mxGeometry x="15" y="170" width="10" height="120" as="geometry" />
        </mxCell>
        <mxCell id="tuBLaBSkJ89Im9jUzG5C-52" value="调用协议，发送长连接" style="edgeStyle=orthogonalEdgeStyle;html=1;align=left;spacingLeft=2;endArrow=block;rounded=0;entryX=1;entryY=0;" edge="1" target="tuBLaBSkJ89Im9jUzG5C-51" parent="tuBLaBSkJ89Im9jUzG5C-11">
          <mxGeometry relative="1" as="geometry">
            <mxPoint x="25" y="150" as="sourcePoint" />
            <Array as="points">
              <mxPoint x="55" y="150" />
            </Array>
          </mxGeometry>
        </mxCell>
        <mxCell id="tuBLaBSkJ89Im9jUzG5C-71" value="" style="html=1;points=[];perimeter=orthogonalPerimeter;" vertex="1" parent="tuBLaBSkJ89Im9jUzG5C-11">
          <mxGeometry x="15" y="370" width="10" height="40" as="geometry" />
        </mxCell>
        <mxCell id="tuBLaBSkJ89Im9jUzG5C-77" value="" style="html=1;points=[];perimeter=orthogonalPerimeter;" vertex="1" parent="tuBLaBSkJ89Im9jUzG5C-11">
          <mxGeometry x="15" y="480" width="10" height="40" as="geometry" />
        </mxCell>
        <mxCell id="tuBLaBSkJ89Im9jUzG5C-83" value="" style="html=1;points=[];perimeter=orthogonalPerimeter;" vertex="1" parent="tuBLaBSkJ89Im9jUzG5C-11">
          <mxGeometry x="15" y="580" width="10" height="50" as="geometry" />
        </mxCell>
        <mxCell id="tuBLaBSkJ89Im9jUzG5C-89" value="" style="html=1;points=[];perimeter=orthogonalPerimeter;" vertex="1" parent="tuBLaBSkJ89Im9jUzG5C-11">
          <mxGeometry x="15" y="690" width="10" height="60" as="geometry" />
        </mxCell>
        <mxCell id="tuBLaBSkJ89Im9jUzG5C-12" value="用户（前端）" style="text;html=1;strokeColor=none;fillColor=none;align=center;verticalAlign=middle;whiteSpace=wrap;rounded=0;" vertex="1" parent="1">
          <mxGeometry x="120" y="170" width="60" height="30" as="geometry" />
        </mxCell>
        <mxCell id="tuBLaBSkJ89Im9jUzG5C-13" value="后台" style="text;html=1;strokeColor=none;fillColor=none;align=center;verticalAlign=middle;whiteSpace=wrap;rounded=0;" vertex="1" parent="1">
          <mxGeometry x="290" y="170" width="60" height="30" as="geometry" />
        </mxCell>
        <mxCell id="tuBLaBSkJ89Im9jUzG5C-14" value="iot" style="text;html=1;strokeColor=none;fillColor=none;align=center;verticalAlign=middle;whiteSpace=wrap;rounded=0;" vertex="1" parent="1">
          <mxGeometry x="480" y="170" width="60" height="30" as="geometry" />
        </mxCell>
        <mxCell id="tuBLaBSkJ89Im9jUzG5C-15" value="网关设备" style="text;html=1;strokeColor=none;fillColor=none;align=center;verticalAlign=middle;whiteSpace=wrap;rounded=0;" vertex="1" parent="1">
          <mxGeometry x="680" y="170" width="60" height="30" as="geometry" />
        </mxCell>
        <mxCell id="tuBLaBSkJ89Im9jUzG5C-16" value="" style="shape=umlLifeline;participant=umlEntity;perimeter=lifelinePerimeter;whiteSpace=wrap;html=1;container=1;collapsible=0;recursiveResize=0;verticalAlign=top;spacingTop=36;outlineConnect=0;" vertex="1" parent="1">
          <mxGeometry x="850" y="210" width="40" height="840" as="geometry" />
        </mxCell>
        <mxCell id="tuBLaBSkJ89Im9jUzG5C-17" value="心电设备" style="text;html=1;strokeColor=none;fillColor=none;align=center;verticalAlign=middle;whiteSpace=wrap;rounded=0;" vertex="1" parent="1">
          <mxGeometry x="840" y="170" width="60" height="30" as="geometry" />
        </mxCell>
        <mxCell id="tuBLaBSkJ89Im9jUzG5C-40" value="调用扫描功能" style="html=1;verticalAlign=bottom;endArrow=block;entryX=0;entryY=0;rounded=0;" edge="1" target="tuBLaBSkJ89Im9jUzG5C-39" parent="1" source="tuBLaBSkJ89Im9jUzG5C-5">
          <mxGeometry relative="1" as="geometry">
            <mxPoint x="635" y="340" as="sourcePoint" />
          </mxGeometry>
        </mxCell>
        <mxCell id="tuBLaBSkJ89Im9jUzG5C-43" value="调用网关扫描" style="html=1;verticalAlign=bottom;endArrow=block;entryX=0;entryY=0;rounded=0;" edge="1" target="tuBLaBSkJ89Im9jUzG5C-42" parent="1" source="tuBLaBSkJ89Im9jUzG5C-2">
          <mxGeometry relative="1" as="geometry">
            <mxPoint x="435" y="330" as="sourcePoint" />
          </mxGeometry>
        </mxCell>
        <mxCell id="tuBLaBSkJ89Im9jUzG5C-44" value="返回列表" style="html=1;verticalAlign=bottom;endArrow=open;dashed=1;endSize=8;exitX=0;exitY=0.95;rounded=0;" edge="1" source="tuBLaBSkJ89Im9jUzG5C-42" parent="1" target="tuBLaBSkJ89Im9jUzG5C-2">
          <mxGeometry relative="1" as="geometry">
            <mxPoint x="435" y="406" as="targetPoint" />
          </mxGeometry>
        </mxCell>
        <mxCell id="tuBLaBSkJ89Im9jUzG5C-58" value="停止网关扫描" style="html=1;verticalAlign=bottom;endArrow=block;entryX=0;entryY=0;rounded=0;" edge="1" target="tuBLaBSkJ89Im9jUzG5C-57" parent="1" source="tuBLaBSkJ89Im9jUzG5C-8">
          <mxGeometry relative="1" as="geometry">
            <mxPoint x="435" y="420" as="sourcePoint" />
          </mxGeometry>
        </mxCell>
        <mxCell id="tuBLaBSkJ89Im9jUzG5C-59" value="ok" style="html=1;verticalAlign=bottom;endArrow=open;dashed=1;endSize=8;exitX=0;exitY=0.95;rounded=0;" edge="1" source="tuBLaBSkJ89Im9jUzG5C-57" parent="1" target="tuBLaBSkJ89Im9jUzG5C-8">
          <mxGeometry relative="1" as="geometry">
            <mxPoint x="435" y="496" as="targetPoint" />
          </mxGeometry>
        </mxCell>
        <mxCell id="tuBLaBSkJ89Im9jUzG5C-60" value="等待10秒" style="shape=umlBoundary;whiteSpace=wrap;html=1;" vertex="1" parent="1">
          <mxGeometry x="320" y="350" width="70" height="60" as="geometry" />
        </mxCell>
        <mxCell id="tuBLaBSkJ89Im9jUzG5C-61" value="返回扫描到的列表" style="html=1;verticalAlign=bottom;endArrow=open;dashed=1;endSize=8;rounded=0;exitX=0;exitY=0.994;exitDx=0;exitDy=0;exitPerimeter=0;" edge="1" parent="1" source="tuBLaBSkJ89Im9jUzG5C-51" target="tuBLaBSkJ89Im9jUzG5C-42">
          <mxGeometry relative="1" as="geometry">
            <mxPoint x="680" y="540" as="sourcePoint" />
            <mxPoint x="600" y="540" as="targetPoint" />
          </mxGeometry>
        </mxCell>
        <mxCell id="tuBLaBSkJ89Im9jUzG5C-69" value="连接设备" style="html=1;verticalAlign=bottom;endArrow=block;entryX=0;entryY=0;rounded=0;" edge="1" target="tuBLaBSkJ89Im9jUzG5C-68" parent="1" source="tuBLaBSkJ89Im9jUzG5C-2">
          <mxGeometry relative="1" as="geometry">
            <mxPoint x="435" y="570" as="sourcePoint" />
          </mxGeometry>
        </mxCell>
        <mxCell id="tuBLaBSkJ89Im9jUzG5C-70" value="ok" style="html=1;verticalAlign=bottom;endArrow=open;dashed=1;endSize=8;exitX=0;exitY=0.95;rounded=0;" edge="1" source="tuBLaBSkJ89Im9jUzG5C-68" parent="1" target="tuBLaBSkJ89Im9jUzG5C-8">
          <mxGeometry relative="1" as="geometry">
            <mxPoint x="435" y="646" as="targetPoint" />
          </mxGeometry>
        </mxCell>
        <mxCell id="tuBLaBSkJ89Im9jUzG5C-72" value="调用连接功能" style="html=1;verticalAlign=bottom;endArrow=block;entryX=0;entryY=0;rounded=0;" edge="1" target="tuBLaBSkJ89Im9jUzG5C-71" parent="1" source="tuBLaBSkJ89Im9jUzG5C-5">
          <mxGeometry relative="1" as="geometry">
            <mxPoint x="635" y="580" as="sourcePoint" />
          </mxGeometry>
        </mxCell>
        <mxCell id="tuBLaBSkJ89Im9jUzG5C-73" value="ok" style="html=1;verticalAlign=bottom;endArrow=open;dashed=1;endSize=8;exitX=0;exitY=0.95;rounded=0;" edge="1" source="tuBLaBSkJ89Im9jUzG5C-71" parent="1" target="tuBLaBSkJ89Im9jUzG5C-68">
          <mxGeometry relative="1" as="geometry">
            <mxPoint x="635" y="656" as="targetPoint" />
          </mxGeometry>
        </mxCell>
        <mxCell id="tuBLaBSkJ89Im9jUzG5C-32" value="" style="html=1;points=[];perimeter=orthogonalPerimeter;" vertex="1" parent="1">
          <mxGeometry x="445.5" y="1100" width="10" height="30" as="geometry" />
        </mxCell>
        <mxCell id="tuBLaBSkJ89Im9jUzG5C-36" value="" style="html=1;points=[];perimeter=orthogonalPerimeter;" vertex="1" parent="1">
          <mxGeometry x="445.5" y="1165" width="10" height="80" as="geometry" />
        </mxCell>
        <mxCell id="tuBLaBSkJ89Im9jUzG5C-33" value="订阅通知" style="html=1;verticalAlign=bottom;endArrow=block;entryX=0;entryY=0;rounded=0;" edge="1" parent="1">
          <mxGeometry x="-0.0243" relative="1" as="geometry">
            <mxPoint x="500.5" y="1320" as="sourcePoint" />
            <mxPoint x="686" y="1320" as="targetPoint" />
            <mxPoint x="1" as="offset" />
          </mxGeometry>
        </mxCell>
        <mxCell id="tuBLaBSkJ89Im9jUzG5C-34" value="结果" style="html=1;verticalAlign=bottom;endArrow=open;dashed=1;endSize=8;exitX=0;exitY=0.95;rounded=0;" edge="1" source="tuBLaBSkJ89Im9jUzG5C-32" parent="1">
          <mxGeometry relative="1" as="geometry">
            <mxPoint x="260" y="1128.5" as="targetPoint" />
          </mxGeometry>
        </mxCell>
        <mxCell id="tuBLaBSkJ89Im9jUzG5C-37" value="写入上传命令" style="html=1;verticalAlign=bottom;endArrow=block;entryX=0;entryY=0;rounded=0;" edge="1" target="tuBLaBSkJ89Im9jUzG5C-36" parent="1">
          <mxGeometry relative="1" as="geometry">
            <mxPoint x="265.5" y="1165" as="sourcePoint" />
          </mxGeometry>
        </mxCell>
        <mxCell id="tuBLaBSkJ89Im9jUzG5C-38" value="return" style="html=1;verticalAlign=bottom;endArrow=open;dashed=1;endSize=8;exitX=0;exitY=0.95;rounded=0;" edge="1" source="tuBLaBSkJ89Im9jUzG5C-36" parent="1">
          <mxGeometry relative="1" as="geometry">
            <mxPoint x="260" y="1241" as="targetPoint" />
          </mxGeometry>
        </mxCell>
        <mxCell id="tuBLaBSkJ89Im9jUzG5C-29" value="" style="html=1;points=[];perimeter=orthogonalPerimeter;" vertex="1" parent="1">
          <mxGeometry x="711" y="1155" width="10" height="70" as="geometry" />
        </mxCell>
        <mxCell id="tuBLaBSkJ89Im9jUzG5C-48" value="" style="html=1;points=[];perimeter=orthogonalPerimeter;" vertex="1" parent="1">
          <mxGeometry x="911" y="1165" width="10" height="40" as="geometry" />
        </mxCell>
        <mxCell id="tuBLaBSkJ89Im9jUzG5C-28" value="连接结果" style="html=1;verticalAlign=bottom;endArrow=open;dashed=1;endSize=8;rounded=0;exitX=0;exitY=0.867;exitDx=0;exitDy=0;exitPerimeter=0;" edge="1" source="tuBLaBSkJ89Im9jUzG5C-29" parent="1">
          <mxGeometry relative="1" as="geometry">
            <mxPoint x="531" y="1215.69" as="targetPoint" />
            <mxPoint x="715.5" y="1175" as="sourcePoint" />
          </mxGeometry>
        </mxCell>
        <mxCell id="tuBLaBSkJ89Im9jUzG5C-30" value="打开设备通知" style="html=1;verticalAlign=bottom;endArrow=block;entryX=0;entryY=0;rounded=0;" edge="1" target="tuBLaBSkJ89Im9jUzG5C-29" parent="1">
          <mxGeometry relative="1" as="geometry">
            <mxPoint x="525.5" y="1155" as="sourcePoint" />
          </mxGeometry>
        </mxCell>
        <mxCell id="tuBLaBSkJ89Im9jUzG5C-49" value="调用打开设备通知功能" style="html=1;verticalAlign=bottom;endArrow=block;entryX=0;entryY=0;rounded=0;exitX=0.9;exitY=0.157;exitDx=0;exitDy=0;exitPerimeter=0;" edge="1" target="tuBLaBSkJ89Im9jUzG5C-48" parent="1" source="tuBLaBSkJ89Im9jUzG5C-29">
          <mxGeometry x="0.1105" y="10" relative="1" as="geometry">
            <mxPoint x="841" y="1165" as="sourcePoint" />
            <mxPoint as="offset" />
          </mxGeometry>
        </mxCell>
        <mxCell id="tuBLaBSkJ89Im9jUzG5C-50" value="return" style="html=1;verticalAlign=bottom;endArrow=open;dashed=1;endSize=8;exitX=0;exitY=0.95;rounded=0;" edge="1" source="tuBLaBSkJ89Im9jUzG5C-48" parent="1" target="tuBLaBSkJ89Im9jUzG5C-29">
          <mxGeometry relative="1" as="geometry">
            <mxPoint x="841" y="1241" as="targetPoint" />
          </mxGeometry>
        </mxCell>
        <mxCell id="tuBLaBSkJ89Im9jUzG5C-75" value="打开设备通知" style="html=1;verticalAlign=bottom;endArrow=block;entryX=0;entryY=0;rounded=0;" edge="1" target="tuBLaBSkJ89Im9jUzG5C-74" parent="1" source="tuBLaBSkJ89Im9jUzG5C-8">
          <mxGeometry x="-0.0556" relative="1" as="geometry">
            <mxPoint x="435" y="680" as="sourcePoint" />
            <mxPoint as="offset" />
          </mxGeometry>
        </mxCell>
        <mxCell id="tuBLaBSkJ89Im9jUzG5C-76" value="return" style="html=1;verticalAlign=bottom;endArrow=open;dashed=1;endSize=8;exitX=0;exitY=0.95;rounded=0;" edge="1" source="tuBLaBSkJ89Im9jUzG5C-74" parent="1" target="tuBLaBSkJ89Im9jUzG5C-8">
          <mxGeometry relative="1" as="geometry">
            <mxPoint x="435" y="756" as="targetPoint" />
          </mxGeometry>
        </mxCell>
        <mxCell id="tuBLaBSkJ89Im9jUzG5C-78" value="调用打开通知功能" style="html=1;verticalAlign=bottom;endArrow=block;entryX=0;entryY=0;rounded=0;" edge="1" target="tuBLaBSkJ89Im9jUzG5C-77" parent="1" source="tuBLaBSkJ89Im9jUzG5C-74">
          <mxGeometry relative="1" as="geometry">
            <mxPoint x="635" y="690" as="sourcePoint" />
          </mxGeometry>
        </mxCell>
        <mxCell id="tuBLaBSkJ89Im9jUzG5C-79" value="return" style="html=1;verticalAlign=bottom;endArrow=open;dashed=1;endSize=8;exitX=0;exitY=0.95;rounded=0;" edge="1" source="tuBLaBSkJ89Im9jUzG5C-77" parent="1" target="tuBLaBSkJ89Im9jUzG5C-74">
          <mxGeometry relative="1" as="geometry">
            <mxPoint x="635" y="766" as="targetPoint" />
          </mxGeometry>
        </mxCell>
        <mxCell id="tuBLaBSkJ89Im9jUzG5C-81" value="开启上传" style="html=1;verticalAlign=bottom;endArrow=block;entryX=0;entryY=0;rounded=0;" edge="1" target="tuBLaBSkJ89Im9jUzG5C-80" parent="1" source="tuBLaBSkJ89Im9jUzG5C-8">
          <mxGeometry relative="1" as="geometry">
            <mxPoint x="435" y="780" as="sourcePoint" />
          </mxGeometry>
        </mxCell>
        <mxCell id="tuBLaBSkJ89Im9jUzG5C-82" value="return" style="html=1;verticalAlign=bottom;endArrow=open;dashed=1;endSize=8;exitX=0;exitY=0.95;rounded=0;" edge="1" source="tuBLaBSkJ89Im9jUzG5C-80" parent="1" target="tuBLaBSkJ89Im9jUzG5C-8">
          <mxGeometry relative="1" as="geometry">
            <mxPoint x="435" y="856" as="targetPoint" />
          </mxGeometry>
        </mxCell>
        <mxCell id="tuBLaBSkJ89Im9jUzG5C-84" value="调用开启上传功能" style="html=1;verticalAlign=bottom;endArrow=block;entryX=0;entryY=0;rounded=0;" edge="1" target="tuBLaBSkJ89Im9jUzG5C-83" parent="1" source="tuBLaBSkJ89Im9jUzG5C-80">
          <mxGeometry relative="1" as="geometry">
            <mxPoint x="635" y="790" as="sourcePoint" />
          </mxGeometry>
        </mxCell>
        <mxCell id="tuBLaBSkJ89Im9jUzG5C-85" value="return" style="html=1;verticalAlign=bottom;endArrow=open;dashed=1;endSize=8;exitX=0;exitY=0.95;rounded=0;" edge="1" source="tuBLaBSkJ89Im9jUzG5C-83" parent="1" target="tuBLaBSkJ89Im9jUzG5C-80">
          <mxGeometry relative="1" as="geometry">
            <mxPoint x="635" y="866" as="targetPoint" />
          </mxGeometry>
        </mxCell>
        <mxCell id="tuBLaBSkJ89Im9jUzG5C-87" value="订阅通知" style="html=1;verticalAlign=bottom;endArrow=block;entryX=0;entryY=0;rounded=0;" edge="1" target="tuBLaBSkJ89Im9jUzG5C-86" parent="1" source="tuBLaBSkJ89Im9jUzG5C-8">
          <mxGeometry relative="1" as="geometry">
            <mxPoint x="435" y="890" as="sourcePoint" />
          </mxGeometry>
        </mxCell>
        <mxCell id="tuBLaBSkJ89Im9jUzG5C-88" value="return" style="html=1;verticalAlign=bottom;endArrow=open;dashed=1;endSize=8;exitX=0;exitY=0.95;rounded=0;" edge="1" source="tuBLaBSkJ89Im9jUzG5C-86" parent="1" target="tuBLaBSkJ89Im9jUzG5C-8">
          <mxGeometry relative="1" as="geometry">
            <mxPoint x="435" y="966" as="targetPoint" />
          </mxGeometry>
        </mxCell>
        <mxCell id="tuBLaBSkJ89Im9jUzG5C-90" value="调用订阅通知功能" style="html=1;verticalAlign=bottom;endArrow=block;entryX=0;entryY=0;rounded=0;" edge="1" target="tuBLaBSkJ89Im9jUzG5C-89" parent="1" source="tuBLaBSkJ89Im9jUzG5C-86">
          <mxGeometry relative="1" as="geometry">
            <mxPoint x="635" y="900" as="sourcePoint" />
          </mxGeometry>
        </mxCell>
        <mxCell id="tuBLaBSkJ89Im9jUzG5C-91" value="返回第一条消息" style="html=1;verticalAlign=bottom;endArrow=open;dashed=1;endSize=8;exitX=0;exitY=0.95;rounded=0;" edge="1" source="tuBLaBSkJ89Im9jUzG5C-89" parent="1" target="tuBLaBSkJ89Im9jUzG5C-86">
          <mxGeometry relative="1" as="geometry">
            <mxPoint x="635" y="976" as="targetPoint" />
          </mxGeometry>
        </mxCell>
      </root>
    </mxGraphModel>
  </diagram>
</mxfile>
